<svg width="200" height="40" viewBox="0 0 200 40" fill="none" xmlns="http://www.w3.org/2000/svg">
<path d="M141.028 18.2701H139.048V11.8332H141.028C141.472 11.7982 141.919 11.8554 142.34 12.0014C142.761 12.1473 143.147 12.3788 143.474 12.6812C143.802 12.9837 144.063 13.3505 144.241 13.7588C144.42 14.167 144.512 14.6078 144.512 15.0534C144.512 15.499 144.42 15.9397 144.241 16.348C144.063 16.7562 143.802 17.1231 143.474 17.4255C143.147 17.728 142.761 17.9594 142.34 18.1053C141.919 18.2513 141.472 18.3085 141.028 18.2735M140.855 12.6643H140.021V17.4449H140.855C142.309 17.4449 143.51 16.6947 143.51 15.0534C143.51 13.4121 142.309 12.6643 140.855 12.6643Z" fill="black"/>
<path d="M146.079 18.2707V11.833H149.548V12.6749H147.054V14.6197H149.145V15.4532H147.054V17.4313H149.901V18.2716L146.079 18.2707Z" fill="black"/>
<path d="M153.219 15.4456H152.249V18.2706H151.282V11.8337H153.219C153.467 11.816 153.716 11.8496 153.951 11.9324C154.186 12.0153 154.401 12.1455 154.583 12.3151C154.765 12.4847 154.91 12.69 155.009 12.9181C155.109 13.1463 155.16 13.3925 155.16 13.6413C155.16 13.8901 155.109 14.1363 155.009 14.3645C154.91 14.5926 154.765 14.7979 154.583 14.9675C154.401 15.1371 154.186 15.2673 153.951 15.3502C153.716 15.433 153.467 15.4666 153.219 15.4489M153.046 12.6647H152.249V14.6203H153.046C153.185 14.6375 153.326 14.6251 153.459 14.5838C153.592 14.5425 153.716 14.4734 153.82 14.3809C153.925 14.2885 154.009 14.1748 154.066 14.0475C154.123 13.9202 154.153 13.7822 154.153 13.6425C154.153 13.5029 154.123 13.3649 154.066 13.2376C154.009 13.1103 153.925 12.9966 153.82 12.9042C153.716 12.8117 153.592 12.7426 153.459 12.7013C153.326 12.66 153.185 12.6475 153.046 12.6647Z" fill="black"/>
<path d="M160.19 18.2716L159.495 16.6044H156.995L156.298 18.2716H155.34L158.085 11.7422H158.438L161.181 18.2716H160.19ZM158.523 14.2554C158.419 13.9972 158.328 13.7337 158.252 13.466H158.229C158.159 13.7357 158.069 13.9997 157.958 14.2554L157.321 15.8292H159.161L158.523 14.2554Z" fill="black"/>
<path d="M166.457 18.2693L164.43 15.4443H163.513V18.2693H162.547V11.8324H164.587C164.834 11.8175 165.082 11.8532 165.315 11.9372C165.548 12.0212 165.761 12.1517 165.942 12.3209C166.123 12.49 166.268 12.6942 166.368 12.9211C166.467 13.1479 166.519 13.3927 166.521 13.6404C166.53 13.9997 166.426 14.3527 166.224 14.6498C166.022 14.9468 165.731 15.1728 165.394 15.2959L167.594 18.2726L166.457 18.2693ZM164.419 12.6601H163.516V14.6157H164.419C164.558 14.6329 164.698 14.6204 164.832 14.5792C164.965 14.5379 165.088 14.4687 165.193 14.3763C165.297 14.2838 165.381 14.1702 165.439 14.0429C165.496 13.9156 165.526 13.7775 165.526 13.6379C165.526 13.4983 165.496 13.3602 165.439 13.2329C165.381 13.1056 165.297 12.992 165.193 12.8995C165.088 12.8071 164.965 12.7379 164.832 12.6966C164.698 12.6554 164.558 12.6429 164.419 12.6601Z" fill="black"/>
<path d="M170.533 12.6716V18.2707H169.55V12.6716H167.483V11.833H172.602V12.6749L170.533 12.6716Z" fill="black"/>
<path d="M180.152 18.2693L179.889 15.3593C179.849 14.925 179.806 14.3707 179.789 13.8989H179.771C179.566 14.3524 179.253 14.9767 179.041 15.3893L177.55 18.3177H177.185L175.672 15.3893C175.449 14.965 175.172 14.389 174.953 13.9147H174.928C174.91 14.4099 174.861 14.9775 174.833 15.3593L174.582 18.2693H173.714L174.268 11.8291H174.872L176.593 15.1434C176.854 15.6436 177.186 16.3013 177.398 16.7947H177.419C177.618 16.3013 177.93 15.6786 178.203 15.1434L179.899 11.8291H180.508L181.084 18.2693H180.152Z" fill="black"/>
<path d="M182.697 18.2707V11.833H186.173V12.6749H183.679V14.6197H185.768V15.4532H183.679V17.4313H186.526V18.2716L182.697 18.2707Z" fill="black"/>
<path d="M193.374 18.4116L190.356 15.1115C189.87 14.5863 189.316 13.9386 188.87 13.4143L188.85 13.426C188.87 14.0095 188.87 14.5555 188.87 15.0415V18.2707H187.893V11.833H188.568L191.332 14.8606C191.705 15.2774 192.291 15.9217 192.687 16.4052L192.705 16.3969C192.687 15.8967 192.687 15.344 192.687 14.8789V11.833H193.665V18.4183L193.374 18.4116Z" fill="black"/>
<path d="M197.928 12.6716V18.2707H196.949V12.6716H194.88V11.833H200V12.6749L197.928 12.6716Z" fill="black"/>
<path d="M140.597 28.4824C140.012 28.4906 139.437 28.3418 138.93 28.0514L138.707 26.9794C139.265 27.4016 139.945 27.6322 140.645 27.6371C141.362 27.6371 141.836 27.2337 141.836 26.6368C141.836 26.0808 141.494 25.7057 140.718 25.4565C139.566 25.0813 138.959 24.4353 138.959 23.5467C138.964 23.293 139.023 23.0432 139.132 22.8136C139.24 22.5841 139.395 22.3798 139.588 22.2141C139.78 22.0484 140.005 21.9249 140.248 21.8516C140.491 21.7783 140.747 21.7569 140.999 21.7887C141.493 21.7752 141.98 21.9071 142.401 22.168L142.21 22.9707C141.837 22.7295 141.403 22.5999 140.959 22.5973C140.831 22.5817 140.702 22.5924 140.578 22.6287C140.454 22.665 140.339 22.7261 140.24 22.8083C140.141 22.8906 140.059 22.9922 140.001 23.1069C139.942 23.2217 139.908 23.3473 139.899 23.4759C139.899 23.8993 140.262 24.2428 140.939 24.4762C142.058 24.8596 142.817 25.459 142.817 26.5484C142.817 27.6979 142.05 28.4824 140.596 28.4824" fill="black"/>
<path d="M146.571 22.7603V28.3653H145.592V22.7603H143.522V21.9268H148.638V22.7603H146.571Z" fill="black"/>
<path d="M152.687 28.4843C152.028 28.4711 151.388 28.2639 150.847 27.8884C150.306 27.513 149.887 26.9861 149.644 26.3738C149.401 25.7615 149.344 25.0911 149.48 24.4465C149.616 23.802 149.94 23.212 150.41 22.7506C150.881 22.2892 151.477 21.9769 152.124 21.8529C152.771 21.7288 153.44 21.7984 154.047 22.0532C154.655 22.3079 155.174 22.7363 155.539 23.2847C155.904 23.833 156.099 24.477 156.1 25.1358C156.102 25.5815 156.014 26.0231 155.843 26.4345C155.671 26.8459 155.419 27.2187 155.101 27.5309C154.782 27.8431 154.405 28.0883 153.99 28.252C153.576 28.4158 153.133 28.4948 152.687 28.4843ZM152.687 22.6434C152.189 22.6268 151.697 22.7594 151.275 23.0243C150.852 23.2892 150.519 23.6743 150.317 24.1301C150.115 24.5858 150.054 25.0916 150.142 25.5823C150.229 26.073 150.462 26.5263 150.809 26.8841C151.156 27.2419 151.602 27.4877 152.09 27.5902C152.578 27.6926 153.085 27.6468 153.547 27.4588C154.008 27.2708 154.403 26.9491 154.681 26.5351C154.959 26.121 155.106 25.6334 155.104 25.1349C155.115 24.8111 155.061 24.4883 154.944 24.186C154.827 23.8837 154.651 23.608 154.425 23.3754C154.2 23.1428 153.929 22.9581 153.631 22.8323C153.332 22.7066 153.011 22.6423 152.687 22.6434Z" fill="black"/>
<path d="M161.168 28.3686L159.137 25.5344H158.227V28.3686H157.261V21.9267H159.304C159.551 21.9128 159.798 21.9492 160.031 22.0336C160.264 22.118 160.477 22.2488 160.658 22.4179C160.839 22.587 160.984 22.791 161.084 23.0176C161.184 23.2442 161.237 23.4887 161.24 23.7364C161.249 24.0956 161.144 24.4484 160.942 24.7451C160.739 25.0417 160.448 25.2671 160.11 25.3894L162.311 28.3686H161.168ZM159.128 22.7536H158.229V24.7142H159.128C159.267 24.7314 159.408 24.7189 159.542 24.6775C159.676 24.6361 159.799 24.5668 159.904 24.4741C160.009 24.3814 160.093 24.2675 160.15 24.1399C160.208 24.0123 160.238 23.8739 160.238 23.7339C160.238 23.5939 160.208 23.4556 160.15 23.328C160.093 23.2003 160.009 23.0864 159.904 22.9937C159.799 22.901 159.676 22.8317 159.542 22.7903C159.408 22.7489 159.267 22.7364 159.128 22.7536Z" fill="black"/>
<path d="M163.367 28.3657V21.9238H166.839V22.7574H164.35V24.7088H166.438V25.5491H164.35V27.5255H167.195V28.3591L163.367 28.3657Z" fill="black"/>
<path d="M60.6105 11.0703C53.9352 11.0703 49.9307 15.119 49.9307 20.128C49.9307 25.1211 53.9318 29.1615 60.6105 29.1615C67.2891 29.1615 71.2912 25.122 71.2912 20.128C71.2912 15.119 67.29 11.0703 60.6105 11.0703ZM60.6105 27.2193C57.4145 27.2193 54.9847 24.04 54.9847 20.128C54.9847 16.216 57.4145 13.0176 60.6105 13.0176C63.8064 13.0176 66.2522 16.206 66.2522 20.128C66.2522 24.05 63.8156 27.2193 60.6105 27.2193Z" fill="black"/>
<path d="M72.2061 13.7461H79.2356V28.4171H84.5289V13.7461H90.4564V11.7363H72.2061V13.7461Z" fill="black"/>
<path d="M92.3955 13.7461H98.3256V28.4171H103.616V13.7461H110.653V11.7363H92.398L92.3955 13.7461Z" fill="black"/>
<path d="M39.3978 25.428V11.7373H34.313V26.4233C34.3167 26.9542 34.5305 27.4619 34.9076 27.8356C35.2847 28.2092 35.7944 28.4184 36.3253 28.4173H49.3366V26.4167H40.404C40.1397 26.4182 39.8855 26.3151 39.697 26.1299C39.5085 25.9446 39.4009 25.6923 39.3978 25.428Z" fill="black"/>
<path d="M113.53 13.728V26.4234C113.534 26.9555 113.748 27.4644 114.127 27.8383C114.505 28.2123 115.017 28.4208 115.549 28.4182H129.416V26.4426H119.639C119.506 26.4454 119.375 26.4217 119.251 26.373C119.128 26.3244 119.015 26.2517 118.92 26.1591C118.825 26.0666 118.75 25.9561 118.698 25.834C118.646 25.7119 118.619 25.5808 118.618 25.4481V20.5375H129.259V18.5928H118.618V14.7008C118.619 14.5683 118.647 14.4375 118.699 14.3157C118.751 14.194 118.827 14.0837 118.922 13.9913C119.017 13.8989 119.129 13.8261 119.252 13.7772C119.375 13.7283 119.507 13.7042 119.639 13.7063H129.416V11.7374H115.549C115.285 11.735 115.024 11.7846 114.78 11.8834C114.536 11.9823 114.313 12.1283 114.126 12.3133C113.938 12.4983 113.789 12.7184 113.687 12.9612C113.584 13.204 113.531 13.4646 113.53 13.728Z" fill="black"/>
<path d="M13.0458 33.0985C11.9506 33.1014 10.8656 32.8872 9.85373 32.4681C8.84185 32.049 7.92312 31.4334 7.15072 30.6569L2.43765 25.943C0.876664 24.3785 0 22.2588 0 20.0488C0 17.8387 0.876664 15.719 2.43765 14.1545L7.15155 9.44144C8.71481 7.87821 10.835 7 13.0458 7C15.2566 7 17.3768 7.87821 18.94 9.44144L23.6539 14.1545C25.215 15.7191 26.0917 17.839 26.0917 20.0492C26.0917 22.2593 25.215 24.3792 23.6539 25.9438L18.94 30.6569C18.1678 31.4334 17.2492 32.049 16.2375 32.4681C15.2257 32.8872 14.1409 33.1015 13.0458 33.0985ZM12.7332 11.5679C12.3375 11.5592 11.9442 11.6308 11.577 11.7783C11.2098 11.9259 10.8763 12.1464 10.5967 12.4265C9.42056 13.5935 9.20382 15.6341 9.22883 17.1396C9.23967 17.7747 9.39555 23.4323 11.7504 26.4515C12.0906 26.898 12.501 27.2862 12.9658 27.601C13.5348 28.0052 14.2143 28.2246 14.9122 28.2295C15.1575 28.2281 15.4021 28.2047 15.6432 28.1595C15.6548 28.1577 15.6662 28.1552 15.6774 28.152C17.0428 27.8361 18.5316 26.5765 19.6603 24.7827C19.712 24.7008 19.747 24.6096 19.7632 24.5141C19.7794 24.4187 19.7764 24.3209 19.7544 24.2267C19.7221 24.0844 19.6483 23.9549 19.5423 23.8546C19.4363 23.7543 19.303 23.6876 19.1592 23.6631C19.0153 23.6386 18.8675 23.6572 18.7342 23.7167C18.601 23.7762 18.4884 23.8739 18.4107 23.9974C17.7416 25.229 16.6638 26.1885 15.3631 26.7107C15.216 26.7375 15.0668 26.7515 14.9172 26.7524C14.5063 26.7497 14.1071 26.6149 13.7785 26.3681C13.4476 26.142 13.1556 25.8636 12.9141 25.5437C11.2469 23.4014 10.7393 19.2368 10.7034 17.1137C10.6743 15.3915 11.0052 14.0987 11.6354 13.4718C11.7802 13.328 11.9531 13.2154 12.1432 13.1412C12.3334 13.0669 12.5367 13.0325 12.7407 13.04H12.8699C13.0735 13.0325 13.2765 13.067 13.4662 13.1412C13.6559 13.2155 13.8284 13.328 13.9727 13.4718C14.6029 14.0978 14.9339 15.389 14.9047 17.1137C14.9352 19.4306 14.3356 21.7123 13.17 23.7148C13.0739 23.8826 13.0475 24.0813 13.0964 24.2683C13.1453 24.4553 13.2657 24.6156 13.4316 24.7148C13.5975 24.8139 13.7957 24.844 13.9836 24.7986C14.1715 24.7531 14.334 24.6358 14.4362 24.4717C15.6921 22.2296 16.3597 19.706 16.3768 17.1362C16.4026 15.6308 16.1859 13.591 15.0089 12.4232C14.7287 12.1428 14.3945 11.9221 14.0265 11.7745C13.6586 11.6269 13.2646 11.5555 12.8682 11.5646L12.7332 11.5679ZM9.75482 26.5724H9.71564C9.50137 26.582 9.29934 26.675 9.15269 26.8315C9.00604 26.988 8.92639 27.1957 8.93074 27.4101C8.93509 27.6246 9.02311 27.8288 9.17598 27.9793C9.32886 28.1297 9.5345 28.2144 9.74899 28.2153H9.78316C9.99717 28.2059 10.199 28.1132 10.3457 27.9571C10.4925 27.801 10.5724 27.5938 10.5686 27.3796C10.5648 27.1654 10.4775 26.9612 10.3254 26.8104C10.1732 26.6596 9.9682 26.5742 9.75399 26.5724H9.75482Z" fill="black"/>
</svg>
