<?xml version="1.0" encoding="utf-8"?>
<!-- Generator: Adobe Illustrator 16.0.3, SVG Export Plug-In . SVG Version: 6.00 Build 0)  -->
<!DOCTYPE svg PUBLIC "-//W3C//DTD SVG 1.1//EN" "http://www.w3.org/Graphics/SVG/1.1/DTD/svg11.dtd">
<svg version="1.1" id="bf2c3cf8-fb77-480f-9cc1-ac6f02b87819"
	 xmlns="http://www.w3.org/2000/svg" xmlns:xlink="http://www.w3.org/1999/xlink" x="0px" y="0px" width="606.61px" height="119px"
	 viewBox="0 371.115 606.61 119" enable-background="new 0 371.115 606.61 119" xml:space="preserve">
<path fill="#003017" d="M122.075,388.334v31.631H91.283v-31.631H122.075z M102.15,409.504h9.059V398.76h-9.059V409.504z
	 M137.432,440.013v31.63h-30.757v-31.586L137.432,440.013z M117.506,461.226h9.059v-10.743h-9.015L117.506,461.226z M137.432,388.29
	v9.703h5.795v12.657h-5.795v27.537h-10.823v-49.854L137.432,388.29z"/>
<path fill="#003017" d="M187.814,424.436v11.158H147.24v-11.158H187.814z M185.645,411.965l-7.789,8.564l-10.329-13.575
	l-10.329,13.584l-7.788-8.564l18.117-24.001L185.645,411.965z"/>
<path fill="#003017" d="M206.275,424.436v-5.583h12.349v5.583h14.113v11.158h-40.574v-11.158H206.275z M206.275,392.056v-4.093
	h12.349v4.093h9.209v9.702h-3.079c0.515,0.695,0.884,1.487,1.085,2.329c0.234,0.881,0.355,1.787,0.362,2.699
	c0.097,3.724-1.345,7.323-3.987,9.949c-2.563,2.636-6.106,4.087-9.782,4.005c-3.641,0.089-7.165-1.287-9.782-3.819
	c-2.652-2.541-3.981-5.919-3.987-10.135c0.011-0.95,0.166-1.893,0.458-2.797c0.21-0.792,0.547-1.546,0.997-2.231h-3.087v-9.702
	H206.275z M227.833,440.057v20.103h-19.935v2.787h19.935v8.741h-30.801v-20.287h19.934v-2.646h-19.934v-8.75L227.833,440.057z
	 M209.31,403.779c-1.694,1.768-1.694,4.557,0,6.324c1.636,1.705,4.344,1.761,6.049,0.126c0.043-0.041,0.085-0.083,0.126-0.126
	c1.694-1.768,1.694-4.557,0-6.324c-1.657-1.705-4.382-1.744-6.087-0.088C209.368,403.719,209.339,403.749,209.31,403.779z"/>
<path fill="#003017" d="M272.738,388.334v20.103h-19.925v2.787h19.925v8.741h-30.792v-20.287h19.925v-2.646h-19.925v-8.697H272.738z
	 M288.165,440.057v31.631h-10.894v-21.17h-19.934v-10.461H288.165z M288.165,388.334v49.871h-10.894v-49.871H288.165z"/>
<path fill="#003017" d="M308.592,388.334v5.954h9.051v-5.954h10.875v31.631h-30.801v-31.631H308.592z M308.592,409.504h9.051v-4.834
	h-9.051V409.504z M343.875,388.334v49.871h-10.832v-27.537h-5.795V398.01h5.795v-9.703L343.875,388.334z M359.09,388.334v49.871
	h-10.822v-49.871H359.09z"/>
<path fill="#003017" d="M395.528,392.339c6.281,6.587,6.281,16.946,0,23.533c-6.096,6.304-16.146,6.473-22.451,0.377
	c-0.127-0.123-0.252-0.249-0.377-0.377c-6.281-6.587-6.281-16.946,0-23.533c6.27-6.304,16.463-6.331,22.766-0.063
	C395.487,392.297,395.506,392.318,395.528,392.339z M380.215,400.154c-1.029,1.069-1.584,2.511-1.535,3.995
	c-0.016,1.452,0.535,2.854,1.535,3.907c0.99,1.104,2.416,1.717,3.898,1.676c1.447,0.003,2.828-0.606,3.803-1.676
	c1.051-1.027,1.639-2.438,1.631-3.907c0.049-3.029-2.367-5.525-5.396-5.574c-0.014,0-0.025,0-0.037,0
	C382.651,398.531,381.237,399.104,380.215,400.154z M414.907,388.334v49.871H404.04v-49.871H414.907z"/>
<path fill="#003017" d="M435.362,388.334v5.954h9.059v-5.954h10.865v31.631h-30.791v-31.631H435.362z M435.362,409.504h9.059v-4.834
	h-9.059V409.504z M470.643,388.334v49.871h-10.822v-49.871H470.643z"/>
<path fill="#003017" d="M60.059,393.723c0.1-1.114,0.017-2.237-0.247-3.325c-1.103-4.613-5.133-10.205-10.682-9.023
	c2.293,0,2.337,2.938,1.041,4.084c-2.408,2.144-6.333,1.967-9.367,2.337c-3.952,0.485-8.821,1.765-11.793,4.508
	c-3.334,3.148-2.717,9.164,0.229,12.463c3.158,3.528,8.644,5.593,13.319,4.173c-1.111-0.512-2.708-1.253-2.02-2.726
	c1.129-2.461,7.259-2.347,9.623-2.788C55.499,402.385,59.591,398.531,60.059,393.723z"/>
<path fill="#003017" d="M41.315,472.05C18.532,472.05,0,454.109,0,432.057s18.523-39.975,41.315-39.975
	c22.792,0,41.333,17.932,41.333,39.975C82.648,454.099,64.125,472.05,41.315,472.05z M41.315,399.219
	c-18.708,0-33.932,14.73-33.932,32.839s15.224,32.848,33.932,32.848c18.708,0,33.933-14.73,33.933-32.848
	S60.023,399.219,41.315,399.219z"/>
<path fill="#003017" d="M49.527,437.976c-0.735-0.015-1.343,0.569-1.358,1.305c0,0.003,0,0.006,0,0.009
	c0,2.99-2.884,5.425-6.412,5.425c-3.528,0-6.404-2.435-6.404-5.425c-0.061-0.752-0.72-1.313-1.473-1.253
	c-0.668,0.055-1.199,0.585-1.253,1.253c0,4.411,4.093,8.071,9.129,8.071c5.036,0,9.138-3.625,9.138-8.071
	C50.875,438.552,50.266,437.967,49.527,437.976z"/>
<path fill="#003017" d="M53.355,424.816c-2.264,0.072-4.04,1.968-3.967,4.231c0.073,2.264,1.967,4.04,4.231,3.967
	c2.212-0.071,3.968-1.884,3.969-4.097C57.55,426.617,55.656,424.781,53.355,424.816z"/>
<path fill="#003017" d="M34.4,428.918c0.078-2.342-1.757-4.304-4.099-4.382s-4.304,1.757-4.381,4.1
	c-0.078,2.342,1.757,4.303,4.099,4.381c0.046,0.002,0.092,0.003,0.139,0.003C32.461,433.058,34.36,431.222,34.4,428.918
	C34.4,428.918,34.4,428.918,34.4,428.918z"/>
<path fill="#003017" d="M520.223,388.334v10.426h-3.439v10.788h3.439v10.417h-30.801v-10.417h3.439V398.76h-3.439v-10.426H520.223z
	 M503.014,409.504h3.615V398.76h-3.615V409.504z M535.649,388.334v49.871h-10.9v-27.537h-5.797V398.01h5.797v-9.703L535.649,388.334
	z M550.866,388.334v49.871h-10.895v-49.871H550.866z"/>
<path fill="#003017" d="M587.231,392.339c6.281,6.587,6.281,16.946,0,23.533c-6.094,6.304-16.146,6.473-22.449,0.377
	c-0.127-0.123-0.254-0.249-0.377-0.377c-6.281-6.587-6.281-16.946,0-23.533c6.27-6.304,16.461-6.331,22.766-0.063
	C587.19,392.297,587.211,392.318,587.231,392.339z M571.92,400.154c-1.031,1.069-1.584,2.511-1.535,3.995
	c-0.016,1.452,0.535,2.854,1.535,3.907c0.99,1.104,2.416,1.717,3.898,1.676c1.445,0.003,2.826-0.606,3.801-1.676
	c1.051-1.027,1.641-2.438,1.633-3.907c0.049-3.029-2.369-5.525-5.398-5.574c-0.012,0-0.023,0-0.035,0
	C574.354,398.531,572.94,399.104,571.92,400.154z M606.584,388.334v49.871h-10.842v-27.537h-5.795V398.01h5.795v-9.703
	L606.584,388.334z"/>
</svg>
