<svg xmlns="http://www.w3.org/2000/svg" xml:space="preserve" width="321.60553" height="174.5992" viewBox="0 0 321.60553 174.5992"><defs><clipPath id="a" clipPathUnits="userSpaceOnUse"><path d="M0 841.889h595.275V0H0Z"/></clipPath></defs><g clip-path="url(#a)" transform="matrix(1.33333 0 0 -1.33333 -236.048 936.857)"><path d="M0 0c15.204-22.799-.92-46.912-27.589-46.912-25.018 0-36.31 17.873-28.964 30.314 2.638 4.474 8.915 8.035 13.673 8.812.78.126 1.265.002 1.463-.404.163-.314-.007-.642-.583-1.063-1.888-1.379-4.417-4.499-5.694-7.176-5.144-10.754.113-25.957 18.989-25.957 17.537 0 30.48 16.657 18.268 36.312-8.857 14.246-22.073 30.476-5.725 46.029 12.363 11.762 36.201 7.954 35.006-4.123-.476-4.804-6.35-11.499-6.839-11.96-.756-.697-1.79.265-1.234 1.139 3.984 6.288 1.415 11.911-1.443 14.307-5.056 4.249-14.056 4.686-19.788-.073C-23.739 28.249-7.529 11.292 0 0m104.613 6.763c0 .138.104.254.242.254 4.572 0 7.245 2.879 7.245 7.27 0 .13.107.237.245.237a.235.235 0 0 0 .236-.237c0-4.417 2.674-7.27 7.245-7.27a.25.25 0 0 0 .241-.245.246.246 0 0 0-.241-.244c-4.571 0-7.245-2.705-7.245-7.275a.236.236 0 0 0-.236-.242.241.241 0 0 0-.245.242c0 4.502-2.673 7.275-7.245 7.275a.239.239 0 0 0-.242.235m50.872-40.28c-1.241 0-2.5 2.94-2.5 8.577 0 10.639 3.615 19.455 6.722 19.455 1.202 0 2.231-2.136 2.709-5.568v-2.194c0-1.812 0-4.25.105-5.913-.583-6.933-3.021-14.357-7.036-14.357M90.908-62.022c-1.296-11.39-3.611-18.032-6.342-17.833-1.384.11-2.23 1.279-2.343 7.862-.27 15.56 1.941 35.482 1.941 35.482 6.892-4.421 7.876-15.414 6.744-25.511M42.82-18.96a123.018 123.018 0 0 1-.342-3.937c-.96-5.101-3.205-10.533-6.637-10.533-1.258 0-2.538 2.997-2.538 8.718 0 10.807 3.671 19.186 6.838 19.186 1.333 0 2.839-3.178 3.065-8.509-.063-1.574-.223-3.204-.386-4.925m53.723 45.177c.771 1.724 2.083 1.965 2.204-1.027.55-13.138-5.768-32.732-12.645-42.257 3.562 26.571 8.477 38.852 10.441 43.284m27.97-32.051c.579 0 .663-1.039.674-1.284.06-3.697-2.712-9.52-7.093-12.683.569 8.016 3.932 13.967 6.419 13.967m21.591 31.859c.827 1.555 1.917 1.805 1.917-1.237 0-8.475-3.863-25.332-9.742-39.929 1.269 25.727 5.594 36.959 7.825 41.166m30.646-.027c.986 1.853 1.745 1.7 1.745-1.227 0-5.742-2.59-16.89-8.187-25.962 1.516 11.905 4.065 22.684 6.442 27.189m2.993-43.097c-.349-4.478-2.909-16.314-7.361-16.314-1.611 0-3.33 4.198-3.33 14.402 0 3.56.249 7.884.625 11.769 8.698 10.276 12.089 24.824 12.089 32.219 0 4.84-1.64 6.56-3.617 6.56-1.66 0-3.482-1.052-5.233-3.029-5.797-6.227-8.946-20.463-10.04-31.964-.972.855-2.114 1.302-3.388 1.302-3.776-.051-7.34-2.767-10.029-7.649-2.336-4.238-3.723-10.256-3.723-15.137 0-1.461.121-2.81.352-4.045-1.15-2.662-2.599-4.665-4.264-4.665-1.794 0-3.3 4.565-3.565 12.073 3.45 5.949 13.099 26.028 12.983 46.681-.035 6.003-2.779 6.467-3.74 6.467-9.062 0-15.498-23.826-15.763-45.23.017-4.302.295-8.118.821-11.386-1.624-4.755-4.425-8.555-8.429-8.555-5.622 0-5.913 6.552-6.066 10.148 6.246 3.41 10.831 9.775 10.831 15.944 0 3.346-1.456 5.325-4.37 5.325-7.549 0-14.213-11.008-13.61-22.398.048-.858.146-1.672.285-2.461a2.582 2.582 0 0 0-.062-.188c-.85-2.392-1.719-5.567-4.343-5.567-.692 0-3.934 1.1-2.116 12.053.807 4.814 1.678 9.406 3.737 16.129.164.548.402 2.117-2.188 2.42-2.029.24-4.347-.422-5.259-3.302-1.185-3.783-2.304-8.296-3.006-12.514a63.084 63.084 0 0 1-.318-2.157c-1.344-10.238-10.678-12.335-12.768-9.818l.847 7.156c7.343 8.852 16.45 27.564 16.292 47.785-.045 5.73-2.711 6.541-3.673 6.547-10.957.146-17.236-28.09-20.123-54.94-.532-1.74-1.207-3.265-2.062-4.591-2.723-4.088-4.501-4.528-5.141-4.528-.591 0-1.709 0-1.709 3.173 0 3.297 1.001 6.391 2.162 10.722.98 3.62 1.819 8.274 1.819 10.134 0 4.219-1.859 6.341-5.521 6.302-.782-.009-1.944-.171-3.284-.356-1.428-.201-3.07-.617-4.186-.643-.894 3.196-2.14 4.586-3.807 4.573-1.766-.021-3.146-1.613-3.146-3.664 0-2.656 2.548-4.273 4.711-4.489.232-1.507.324-3.556.324-5.748 0-6.122-1.243-13.356-3.316-17.048-.014-.03-.014-.063-.028-.093-1.005-1.876-2.392-3.634-4.128-3.634-1.56 0-2.117 2.612-2.117 4.847 0 3.275.502 7.582.943 11.382.336 2.915.588 5.434.628 6.938.06 2.521-1.726 4.101-4.268 3.902-.288-.016-.557-.081-.838-.115-1.119 2.707-3.036 4.247-5.328 4.247-3.846 0-7.479-2.749-10.212-7.741-2.365-4.327-3.789-9.875-3.789-14.844 0-1.343.109-2.589.3-3.746-1.039-2.266-2.766-4.87-4.882-4.87-.69 0-2.933.253-2.933 11.357 0 6.661 1.266 14.719 2.308 20.345 6.798.536 13.076 3.94 16.742 7.206.844.792 1.036 1.602.844 2.118-.3.821-1.498 1.035-2.774.241-5.676-3.48-12.08-4.685-13.775-4.517 1.127 6.464 2.868 12.544 3.443 14.107.181.479.099 1.015-.295 1.328-.026.02-.065.049-.123.098-.417.314-1.956 1.22-3.358 1.237-1.585.013-2.868-1.06-3.438-2.854-.487-1.453-1.709-5.985-3.191-13.458-2.626.18-5.442 1.343-7.15 2.68-1.459 1.138-2.165 2.104-3.008.801-.893-1.332-.841-4.119 1.317-5.915 1.828-1.523 5.016-2.733 7.869-2.961C12.319-12 11.996-16.567 11.996-21.306c0-4.941.253-16.249 8.311-16.249 3.214 0 5.564 2.029 7.272 4.836 1.595-3.105 4.285-4.836 7.849-4.836 2.934 0 5.505 1.973 7.536 5.743 1.023-3.211 3.355-5.743 6.908-5.743 3.781 0 6.325 2.801 8.036 6.371.025.038.063.065.084.108 1.308 2.622 2.117 5.811 2.613 8.874.626 3.489.747 6.734.747 9.469 0 1.948-.123 3.974-.363 5.928.724.045 1.48.117 2.264.191 1.181.117 2.395.23 3.571.242.059-.002.059-.222.059-.437 0-2.14-.787-5.757-1.841-9.592-1.247-4.564-2.404-11.405-2.404-13.82 0-6.119 3.064-7.403 5.869-7.403 2.982 0 6.242 2.073 8.89 5.51-1.138-13.759-1.379-26.242-.916-33.131.447-6.56 1.115-17.802 6.711-18.579 7.149-.979 11.766 12.868 11.668 28.553-.054 9.753-3.269 17.88-9.001 21.144 3.1-1.029 8.137.954 11.527 5.305.512-4.916 2.498-8.733 7.402-8.733 3.691 0 6.195 2.621 7.905 6.006 2.006-3.811 5.618-6.006 10.51-6.006 4.789 0 8.253 3.029 10.534 7.372 1.493-4.712 3.812-7.377 6.951-7.377 2.719 0 4.806 1.815 6.668 4.749 1.568-3.062 4.216-4.769 7.718-4.769 3.652 0 6.817 3.247 8.858 8.895 1.491-5.84 4.017-8.895 7.417-8.895 3.717 0 6.631 2.679 8.666 7.958 1.658 4.308 2.201 9.806 2.418 12.362.167 2.056-2.51 2.453-2.69.161" style="fill:#c31532;fill-opacity:1;fill-rule:nonzero;stroke:none" transform="translate(235.8 655.566)"/></g></svg>